<svg width="10.915039" height="20.534058" viewBox="0 0 10.915 20.5341" fill="none" xmlns="http://www.w3.org/2000/svg" xmlns:xlink="http://www.w3.org/1999/xlink">
	<desc>
			Created with Pixso.
	</desc>
	<defs/>
	<path id="Path 22671" d="M10.2 11.46L10.76 7.77L7.22 7.77L7.22 5.38C7.2 5.1 7.23 4.82 7.33 4.57C7.43 4.31 7.58 4.07 7.78 3.88C7.98 3.69 8.22 3.55 8.49 3.46C8.75 3.37 9.03 3.35 9.3 3.38L10.91 3.38L10.91 0.24C9.97 0.09 9.01 0.01 8.05 0C5.14 0 3.23 1.76 3.23 4.96L3.23 7.77L0 7.77L0 11.46L3.23 11.46L3.23 20.37C3.89 20.48 4.56 20.53 5.23 20.53C5.9 20.53 6.56 20.48 7.22 20.37L7.22 11.46L10.2 11.46Z" fill="#FFFFFF" fill-opacity="1.000000" fill-rule="nonzero"/>
</svg>
