<svg width="20.105957" height="20.107056" viewBox="0 0 20.106 20.1071" fill="none" xmlns="http://www.w3.org/2000/svg" xmlns:xlink="http://www.w3.org/1999/xlink">
	<desc>
			Created with Pixso.
	</desc>
	<defs/>
	<path id="Path 22668" d="M15.37 3.58C15.06 3.58 14.76 3.71 14.54 3.93C14.32 4.15 14.2 4.45 14.2 4.76C14.2 4.92 14.23 5.07 14.29 5.22C14.34 5.36 14.43 5.49 14.54 5.6C14.65 5.71 14.78 5.79 14.92 5.85C15.07 5.91 15.22 5.94 15.37 5.94C15.69 5.94 15.99 5.82 16.21 5.6C16.43 5.38 16.55 5.08 16.55 4.76C16.55 4.61 16.52 4.46 16.46 4.31C16.41 4.17 16.32 4.04 16.21 3.93C16.1 3.82 15.97 3.73 15.83 3.67C15.68 3.62 15.53 3.58 15.37 3.58Z" fill="#FFFFFF" fill-opacity="1.000000" fill-rule="nonzero"/>
	<path id="Path 22669" d="M10.13 5.1C8.82 5.1 7.56 5.62 6.63 6.55C5.71 7.48 5.18 8.74 5.18 10.05C5.18 11.36 5.71 12.62 6.63 13.55C7.56 14.48 8.82 15 10.13 15C11.45 15 12.71 14.48 13.63 13.55C14.56 12.62 15.08 11.36 15.09 10.05C15.08 8.74 14.56 7.48 13.63 6.55C12.71 5.62 11.45 5.1 10.13 5.1ZM10.13 13.22C9.29 13.22 8.49 12.88 7.89 12.29C7.3 11.69 6.96 10.89 6.96 10.05C6.96 9.21 7.3 8.4 7.89 7.8C8.49 7.21 9.29 6.88 10.13 6.88C10.98 6.88 11.78 7.21 12.38 7.8C12.97 8.4 13.31 9.21 13.31 10.05C13.31 10.89 12.97 11.69 12.38 12.29C11.78 12.88 10.98 13.22 10.13 13.22Z" fill="#FFFFFF" fill-opacity="1.000000" fill-rule="nonzero"/>
	<path id="Path 22670" d="M14.07 20.1L6.03 20.1C4.43 20.1 2.9 19.46 1.77 18.33C0.63 17.2 0 15.66 0 14.06L0 6.04C0 4.43 0.63 2.9 1.77 1.77C2.9 0.63 4.43 0 6.03 0L14.06 0C15.66 0 17.2 0.63 18.33 1.77C19.46 2.9 20.1 4.43 20.1 6.03L20.1 14.06C20.1 15.66 19.46 17.2 18.33 18.33C17.2 19.46 15.67 20.1 14.07 20.1ZM6.03 1.89C4.93 1.89 3.88 2.33 3.1 3.1C2.33 3.88 1.89 4.93 1.89 6.03L1.89 14.06C1.89 15.16 2.32 16.22 3.1 17C3.88 17.78 4.93 18.21 6.03 18.21L14.06 18.21C15.16 18.21 16.22 17.78 16.99 17C17.77 16.22 18.21 15.17 18.21 14.07L18.21 6.04C18.21 4.94 17.77 3.89 16.99 3.11C16.22 2.33 15.16 1.89 14.06 1.89L6.03 1.89Z" fill="#FFFFFF" fill-opacity="1.000000" fill-rule="nonzero"/>
</svg>
