<svg width="33.000000" height="33.000000" viewBox="0 0 33 33" fill="none" xmlns="http://www.w3.org/2000/svg" xmlns:xlink="http://www.w3.org/1999/xlink">
	<desc>
			Created with Pixso.
	</desc>
	<defs/>
	<path id="Vector" d="M4.97 0.04C3.75 0.25 2.64 0.83 1.75 1.72C1.09 2.38 0.81 2.79 0.44 3.65C-0.03 4.74 0 4.04 0 16.45C0 28.58 -0.02 28.1 0.37 29.13C0.64 29.85 1.05 30.5 1.64 31.11C2.47 31.98 3.36 32.5 4.54 32.81L5.11 32.96L16.07 32.99C23.86 33 27.22 32.99 27.7 32.94C29.13 32.77 30.28 32.23 31.27 31.25C32.01 30.52 32.44 29.82 32.8 28.75L33 28.17L33 16.52L33 4.87L32.84 4.33C32.26 2.33 30.76 0.83 28.74 0.2L28.12 0L16.72 0C10.45 -0.01 5.16 0.01 4.97 0.04ZM12.28 12.4C14.6 14.62 16.47 16.47 16.46 16.49C16.45 16.52 14.55 18.36 12.23 20.59L8.02 24.64L6.92 23.59C6.33 23.02 5.83 22.52 5.84 22.48C5.84 22.44 7.23 21.09 8.93 19.47C10.62 17.84 12.01 16.5 12.01 16.48C12.01 16.45 10.63 15.1 8.92 13.46C7.23 11.83 5.83 10.48 5.83 10.46C5.83 10.37 7.93 8.33 8 8.34C8.05 8.36 9.97 10.18 12.28 12.4ZM27.26 23.37L27.26 24.64L23.28 24.64L19.29 24.64L19.29 23.37L19.29 22.11L23.28 22.11L27.26 22.11L27.26 23.37Z" fill="#C92071" fill-opacity="1.000000" fill-rule="nonzero"/>
</svg>
