<svg width="64.000000" height="64.000000" viewBox="0 0 64 64" fill="none" xmlns="http://www.w3.org/2000/svg" xmlns:xlink="http://www.w3.org/1999/xlink">
	<desc>
			Created with Pixso.
	</desc>
	<defs>
		<clipPath id="clip309_940">
			<rect id="pants" width="64.000000" height="64.000000" fill="white" fill-opacity="0"/>
		</clipPath>
		<clipPath id="clip309_943">
			<rect id="headphones_1" width="64.000000" height="64.000000" fill="white" fill-opacity="0"/>
		</clipPath>
		<clipPath id="clip309_946">
			<rect id="tshirt-_1_" width="64.000000" height="64.000000" fill="white" fill-opacity="0"/>
		</clipPath>
		<clipPath id="clip309_949">
			<rect id="sneakers" width="64.000000" height="64.000000" fill="white" fill-opacity="0"/>
		</clipPath>
		<clipPath id="clip309_954">
			<rect id="cap" width="64.000000" height="64.000000" fill="white" fill-opacity="0"/>
		</clipPath>
	</defs>
	<rect id="sneakers" width="64.000000" height="64.000000" fill="#FFFFFF" fill-opacity="0"/>
	<g clip-path="url(#clip309_949)">
		<path id="Vector" d="M42.2 0.2C40.93 0.6 39.95 1.52 39.51 2.68C39.3 3.26 39.27 3.64 39.27 5.88C39.28 8.12 39.26 8.56 39.02 9.4C38.56 11.11 37.92 12.07 36.76 12.86C35.47 13.73 34.12 14.32 32.62 14.68C31.3 14.98 31.16 14.96 30.98 14.33C30.58 12.81 29.26 10.6 28.16 9.62C26.52 8.16 23.12 7.35 21.15 7.93C20.1 8.25 19.29 9.12 19.07 10.18C19.03 10.38 18.77 13.45 18.5 16.98L17.98 23.41L13.55 34.11C11.11 40 9.03 44.91 8.96 45.02C8.87 45.13 7.34 46.47 5.56 48C3.77 49.51 2.03 51.07 1.71 51.47C0.12 53.37 -0.39 56.02 0.37 58.37C0.7 59.35 1.09 60.03 2.31 61.62C3.7 63.45 4.43 63.85 6.63 63.96C9.95 64.13 13.77 63.32 17.07 61.75C19.45 60.62 16.56 62.71 49.26 38.53C58.41 31.76 58.7 31.55 60.25 29.92C61.55 28.56 62.45 27.33 63.12 26C63.98 24.28 64.18 23.17 63.81 22.11C63.53 21.35 63.12 20.86 62 20C61.46 19.57 60.73 18.88 60.4 18.47C59.8 17.75 59.6 17.42 58.08 14.66C56.23 11.28 53.62 7.87 50.63 4.89C48.81 3.08 46.21 0.93 45.3 0.48C44.36 0.02 43.12 -0.11 42.2 0.2ZM44 2.25C44.98 2.52 49.3 6.37 51.48 8.93C53.27 11.02 56.05 14.98 55.97 15.32C55.95 15.4 55.03 16.13 53.93 16.96C52.77 17.82 51.8 18.66 51.6 18.95C51.12 19.63 50.73 20.55 50.63 21.22L50.56 21.8L49.31 22.5C44.05 25.43 40.02 29.53 37.11 34.92L36.43 36.16L35.06 36.98C29.87 40.13 27.41 42.25 23.18 47.18C17.15 54.26 10.81 58.12 5.27 58.12C4.21 58.12 2.81 57.93 2.52 57.76C2.43 57.71 2.3 57.32 2.22 56.9C1.98 55.58 2.45 53.88 3.33 52.81C3.65 52.45 9.95 47 10.43 46.67C10.57 46.58 12.91 45.55 15.62 44.36C18.48 43.12 20.91 41.98 21.4 41.66C22.45 40.97 23.47 39.84 24.03 38.77C24.27 38.31 26.11 33.23 28.11 27.51C30.12 21.77 31.77 17.06 31.78 17.04C31.8 17.02 32.25 16.92 32.76 16.81C34.11 16.53 35.31 16.11 36.58 15.45C38.67 14.37 39.84 13.17 40.59 11.35C41.26 9.75 41.42 8.72 41.42 5.91C41.43 3.03 41.47 2.93 42.5 2.39C43.11 2.1 43.35 2.07 44 2.25ZM24.7 10.17C26.15 10.56 27.1 11.32 27.97 12.78C28.41 13.51 29.02 14.9 28.93 14.97C28.91 15 28.42 14.96 27.86 14.88C24.92 14.48 23.15 14.97 21.47 16.62C21 17.07 20.62 17.37 20.62 17.28C20.62 16.47 21.16 10.62 21.25 10.4C21.31 10.25 21.5 10.06 21.65 10C22.01 9.83 23.86 9.95 24.7 10.17ZM28.07 17.03L29.46 17.18L25.93 27.26C24 32.8 22.26 37.61 22.06 37.95C21.55 38.82 20.53 39.78 19.65 40.23C19 40.56 12.03 43.62 11.93 43.62C11.92 43.62 12.36 42.51 12.92 41.16L13.95 38.71L16.95 37.86C20.18 36.93 20.5 36.77 20.5 35.98C20.5 35.5 20.01 35 19.53 35C19.33 35 18.29 35.25 17.22 35.56C16.15 35.87 15.21 36.12 15.13 36.12C15.07 36.12 15.26 35.55 15.55 34.84L16.08 33.56L17.95 33.03C21.93 31.9 22 31.86 22 31.06C22 30.51 21.53 30 21.06 30C20.87 30 19.95 30.22 19 30.5C18.04 30.77 17.23 31 17.21 31C17.15 31 18.11 28.6 18.23 28.47C18.27 28.42 19.36 28.08 20.62 27.72C23.17 27.01 23.5 26.82 23.5 26.07C23.5 25.75 23.41 25.57 23.11 25.32C22.9 25.15 22.65 25 22.53 25C22.38 25 21.5 25.23 19.47 25.82C19.31 25.87 19.38 25.61 19.79 24.61C20.1 23.91 20.42 23.3 20.51 23.25C20.61 23.2 21.53 22.91 22.56 22.62C23.98 22.23 24.5 22.03 24.72 21.8C25.07 21.41 25.07 20.88 24.73 20.45C24.41 20.02 23.9 20.02 22.52 20.42C21.96 20.58 21.5 20.67 21.5 20.61C21.5 20.28 22.27 18.85 22.7 18.37C23.97 16.97 25 16.71 28.07 17.03ZM59.02 20.17C59.41 20.61 60.16 21.28 60.68 21.68C61.21 22.07 61.7 22.55 61.76 22.73C62.27 24.03 59.91 27.65 56.96 30.1C56.37 30.58 56 30.81 55.96 30.71C55.92 30.63 55.22 28.92 54.4 26.92C52.71 22.83 52.57 22.41 52.67 21.7C52.83 20.63 53.32 20.06 55.25 18.62L57.05 17.28L57.67 18.33C58.02 18.91 58.63 19.73 59.02 20.17ZM52.55 28.02C53.43 30.17 54.16 32 54.17 32.08C54.18 32.16 50.11 35.25 45.12 38.92C34.73 46.61 35.73 46.11 36.31 43.32C37.86 35.63 42.53 29.03 49.31 24.96C50.07 24.5 50.75 24.12 50.81 24.12C50.88 24.12 51.66 25.88 52.55 28.02ZM35.07 39.77C34.33 42.33 33.75 45.37 33.75 46.65C33.75 46.95 33.67 47.28 33.59 47.4C33.41 47.62 19.25 58.08 18.31 58.68C16.71 59.71 14.5 60.66 12.56 61.16C10.6 61.66 9.57 61.8 7.56 61.8C5.4 61.81 5.01 61.7 4.37 60.82L3.98 60.31L5.83 60.22C8.01 60.13 9.75 59.73 11.87 58.83C16.25 57 20.95 53.22 25.13 48.18C27.02 45.91 28.91 44.02 30.85 42.46C32.28 41.31 34.83 39.51 35.05 39.5C35.09 39.5 35.11 39.62 35.07 39.77Z" fill="#8F8F8F" fill-opacity="1.000000" fill-rule="nonzero"/>
		<path id="Vector" d="M47.75 29.33C47.45 29.72 47.45 30.06 47.76 31.81C48.01 33.26 48.85 33.8 49.63 33.01C50.06 32.58 50.06 32.55 49.81 31.06C49.5 29.26 49.33 29 48.45 29C48.12 29 47.95 29.08 47.75 29.33Z" fill="#8F8F8F" fill-opacity="1.000000" fill-rule="nonzero"/>
		<path id="Vector" d="M43.89 32.12C43.33 32.36 43.25 32.9 43.52 34.43C43.79 36 44.03 36.37 44.7 36.37C45.27 36.37 45.48 36.26 45.7 35.84C45.86 35.52 45.86 35.36 45.63 34.12C45.35 32.56 45.23 32.28 44.79 32.12C44.42 31.97 44.27 31.97 43.89 32.12Z" fill="#8F8F8F" fill-opacity="1.000000" fill-rule="nonzero"/>
	</g>
</svg>
