<svg width="22.123535" height="18.244629" viewBox="0 0 22.1235 18.2446" fill="none" xmlns="http://www.w3.org/2000/svg" xmlns:xlink="http://www.w3.org/1999/xlink">
	<desc>
			Created with Pixso.
	</desc>
	<defs/>
	<path id="Path 22667" d="M22.02 2.18C21.31 2.48 20.56 2.7 19.79 2.82C20.15 2.75 20.68 2.1 20.89 1.84C21.22 1.44 21.47 0.98 21.63 0.49C21.65 0.45 21.66 0.4 21.62 0.37C21.61 0.36 21.58 0.36 21.56 0.36C21.54 0.36 21.52 0.37 21.51 0.38C20.67 0.83 19.78 1.17 18.85 1.39C18.82 1.4 18.79 1.41 18.76 1.4C18.72 1.39 18.69 1.37 18.67 1.35C18.6 1.26 18.52 1.18 18.44 1.11C18.06 0.78 17.62 0.51 17.15 0.32C16.53 0.07 15.86 -0.04 15.18 0C14.53 0.05 13.89 0.23 13.31 0.53C12.73 0.84 12.22 1.26 11.81 1.76C11.38 2.29 11.07 2.91 10.91 3.56C10.77 4.19 10.75 4.83 10.86 5.46C10.87 5.57 10.86 5.58 10.77 5.57C7.26 5.21 4.01 3.56 1.65 0.93C1.55 0.81 1.49 0.81 1.4 0.94C0.93 1.81 0.75 2.82 0.89 3.8C1.03 4.79 1.49 5.7 2.19 6.4C2.37 6.57 2.55 6.74 2.75 6.89C2.14 6.85 1.54 6.68 0.99 6.4C0.89 6.33 0.83 6.37 0.82 6.49C0.82 6.67 0.83 6.84 0.85 7.02C0.96 7.84 1.28 8.62 1.79 9.27C2.29 9.93 2.96 10.44 3.73 10.75C3.92 10.83 4.12 10.89 4.32 10.93C3.75 11.04 3.17 11.06 2.59 10.98C2.47 10.96 2.42 11.02 2.47 11.14C2.76 11.92 3.25 12.6 3.88 13.13C4.52 13.66 5.28 14.02 6.09 14.18C6.25 14.21 6.42 14.21 6.58 14.25C6.57 14.26 6.56 14.26 6.55 14.27C5.85 14.91 5 15.36 4.08 15.59C2.87 16.02 1.59 16.18 0.32 16.07C0.12 16.04 0.08 16.04 0.02 16.07C-0.04 16.09 0.01 16.15 0.08 16.2C0.33 16.37 0.59 16.52 0.86 16.67C1.66 17.09 2.5 17.43 3.37 17.67C5.61 18.35 7.99 18.42 10.27 17.89C12.55 17.35 14.65 16.23 16.36 14.63C19.03 11.99 19.96 8.34 19.96 4.69C19.96 4.55 20.13 4.47 20.23 4.39C20.91 3.86 21.5 3.25 22 2.55C22.08 2.45 22.12 2.33 22.12 2.2L22.12 2.18C22.12 2.12 22.11 2.14 22.02 2.18Z" fill="#FFFFFF" fill-opacity="1.000000" fill-rule="nonzero"/>
</svg>
